<?xml version="1.0" encoding="UTF-8"?>
<svg width="98px" height="98px" viewBox="0 0 98 98" version="1.1" xmlns="http://www.w3.org/2000/svg" xmlns:xlink="http://www.w3.org/1999/xlink">
    <!-- Generator: Sketch 46 (44423) - http://www.bohemiancoding.com/sketch -->
    <title>if_modern-latin-alphabet-letter-n_854006</title>
    <desc>Created with Sketch.</desc>
    <defs></defs>
    <g id="Page-1" stroke="none" stroke-width="1" fill="none" fill-rule="evenodd">
        <g id="if_modern-latin-alphabet-letter-n_854006" fill="#2B2A29">
            <path d="M3.99185336,0 L94.0081466,0 C96.203666,0 98,1.79633401 98,3.99185336 L98,94.0081466 C98,96.203666 96.203666,98 94.0081466,98 L3.99185336,98 C1.79633401,98 0,96.203666 0,94.0081466 L0,3.99185336 C0,1.79633401 1.79633401,0 3.99185336,0 Z M6.58655804,2.79429735 L91.413442,2.79429735 C93.4093686,2.79429735 95.2057026,4.3910387 95.2057026,6.58655804 L95.2057026,91.413442 C95.2057026,93.4093686 93.6089613,95.2057026 91.413442,95.2057026 L6.58655804,95.2057026 C4.59063136,95.2057026 2.79429735,93.6089613 2.79429735,91.413442 L2.79429735,6.58655804 C2.79429735,4.59063136 4.3910387,2.79429735 6.58655804,2.79429735 Z" id="Shape"></path>
            <path d="M18.1629328,82.0325866 L18.1629328,52.293279 L18.1629328,29.5397149 L37.7230143,58.8798371 L37.7230143,81.2342159 L37.7230143,82.0325866 L18.1629328,82.0325866 Z M18.1629328,16.3665988 L18.1629328,16.3665988 L38.3217923,16.3665988 C43.311609,24.7494908 38.3217923,16.3665988 60.0773931,53.490835 C59.8778004,52.293279 60.0773931,53.8900204 60.0773931,52.4928717 C60.0773931,51.095723 59.8778004,49.4989817 59.8778004,47.503055 L59.8778004,16.5661914 L80.0366599,16.5661914 L80.0366599,82.2321792 L59.8778004,82.2321792 C44.1099796,56.2851324 34.7291242,41.1160896 18.1629328,16.5661914 L18.1629328,16.3665988 Z" id="Shape" fill-rule="nonzero"></path>
        </g>
    </g>
</svg>